<?xml version="1.0" standalone="no"?>
<!DOCTYPE svg PUBLIC "-//W3C//DTD SVG 20010904//EN"
 "http://www.w3.org/TR/2001/REC-SVG-20010904/DTD/svg10.dtd">
<svg version="1.0" xmlns="http://www.w3.org/2000/svg"
 width="2000.000000pt" height="2000.000000pt" viewBox="0 0 2000.000000 2000.000000"
 preserveAspectRatio="xMidYMid meet">
<metadata>
Created by potrace 1.16, written by Peter Selinger 2001-2019
</metadata>
<g transform="translate(0.000000,2000.000000) scale(0.100000,-0.100000)"
fill="#000000" stroke="none">
<path d="M14933 12608 c-54 -67 -143 -175 -198 -241 -382 -453 -519 -634 -744
-982 -143 -220 -139 -214 -134 -178 1 15 12 111 24 213 11 102 38 271 60 375
22 105 53 254 69 331 l30 142 -91 213 c-50 118 -95 220 -101 227 -8 9 -204 12
-917 12 l-906 0 -92 -97 c-50 -54 -108 -120 -129 -148 -20 -27 -49 -64 -63
-82 l-25 -32 -22 57 c-59 157 -108 269 -125 285 -17 16 -168 17 -2874 17
l-2856 0 -50 -47 c-46 -43 -131 -147 -339 -413 -119 -153 -331 -429 -391 -510
-249 -337 -399 -545 -485 -675 -32 -49 -96 -142 -141 -205 -45 -63 -112 -163
-150 -222 -37 -58 -125 -191 -194 -295 -107 -160 -222 -354 -449 -753 -24 -41
-74 -129 -112 -195 -131 -226 -171 -301 -315 -585 -170 -335 -240 -490 -321
-710 -12 -30 -41 -104 -66 -165 -25 -60 -46 -122 -46 -138 0 -15 16 -67 36
-115 95 -230 134 -331 134 -346 0 -14 107 -16 1193 -18 2978 -7 4526 -8 4539
-3 8 3 71 93 139 199 68 107 126 192 127 191 2 -2 38 -87 80 -190 l77 -186
650 3 c358 1 772 1 920 -1 l270 -3 30 49 c51 83 394 615 612 950 l211 322 5
-277 c5 -214 12 -315 30 -442 l23 -165 81 -170 c44 -93 93 -197 109 -229 l29
-59 950 7 c712 5 953 10 962 19 6 7 176 278 378 602 693 1112 773 1242 1405
2255 348 558 700 1123 782 1254 116 186 148 245 143 263 -3 13 -9 23 -13 23
-4 -1 -215 -335 -468 -743 -1125 -1809 -1079 -1737 -1082 -1703 -3 22 12 62
52 141 64 127 11 41 833 1343 348 552 633 1005 633 1008 0 13 -73 103 -80 99
-11 -7 -105 -141 -183 -260 -33 -49 -70 -106 -84 -125 -101 -147 -490 -744
-596 -915 -199 -324 -280 -427 -383 -490 -41 -25 -65 -24 -96 3 -39 34 -13
154 67 313 14 27 24 49 21 49 -12 0 -126 -167 -211 -310 -174 -293 -305 -525
-305 -539 0 -16 7 -14 57 20 60 42 113 49 143 19 21 -21 22 -29 16 -92 -5 -56
-17 -90 -60 -177 -88 -179 -122 -219 -233 -275 -59 -29 -113 -33 -147 -11
l-24 16 -7 -59 c-9 -83 -50 -149 -132 -215 -80 -64 -143 -160 -143 -217 0 -71
-28 -132 -101 -225 -79 -100 -113 -154 -130 -206 -6 -19 -36 -89 -65 -155 -53
-120 -54 -122 -39 -157 19 -46 19 -66 -1 -106 -14 -29 -14 -34 0 -56 20 -30
20 -30 1 -49 -31 -31 -107 20 -126 84 -10 33 -7 47 34 151 104 265 206 488
325 709 69 129 167 321 217 425 51 105 128 254 172 330 44 77 122 214 173 305
167 297 201 352 359 588 86 128 226 340 311 471 85 130 187 286 227 347 67
103 150 221 313 446 39 54 79 122 90 153 10 30 18 55 16 55 -1 0 -50 -66 -109
-147 -59 -82 -142 -197 -186 -258 -44 -60 -157 -229 -252 -375 -227 -348 -378
-576 -450 -676 -65 -90 -227 -358 -359 -593 -47 -84 -118 -209 -159 -279 -41
-70 -120 -222 -176 -338 -57 -116 -156 -311 -222 -435 -122 -227 -208 -412
-318 -683 -33 -82 -63 -148 -67 -147 -5 0 -424 1 -932 1 l-923 0 -17 128 c-28
214 -36 363 -36 702 0 482 18 827 62 1183 18 143 19 180 9 190 -10 10 -17 6
-37 -18 -39 -47 -324 -526 -399 -670 -37 -71 -94 -177 -125 -235 -229 -417
-521 -1021 -575 -1190 -9 -30 -22 -60 -29 -66 -8 -9 -253 -14 -883 -19 -480
-4 -873 -5 -873 -2 0 8 83 211 150 367 67 156 145 312 265 535 42 77 90 169
107 205 106 227 144 302 218 431 46 79 94 164 108 189 167 309 287 505 594
967 139 210 306 462 370 560 149 225 392 564 568 793 45 58 119 155 166 215
46 61 122 160 169 220 47 61 100 128 116 150 17 22 71 86 121 143 l92 102 887
0 888 0 -9 -27 c-4 -16 -22 -71 -38 -123 -55 -169 -208 -826 -256 -1095 -20
-111 -81 -508 -97 -630 -14 -106 -18 -340 -6 -352 11 -10 34 19 104 131 30 49
112 170 181 270 69 100 215 318 324 485 234 357 435 626 703 941 96 112 289
351 312 386 l15 24 520 0 c516 0 519 0 508 20 -10 20 -21 20 -525 20 l-514 0
-98 -122z m-3491 53 c-65 -48 -59 -55 17 -16 39 19 71 32 71 27 0 -4 -35 -46
-78 -93 -103 -112 -314 -377 -479 -600 -50 -68 -149 -198 -219 -289 -70 -91
-158 -207 -196 -259 -37 -51 -68 -90 -68 -87 0 30 154 272 279 441 37 50 78
106 90 125 23 35 22 35 -14 -5 -44 -49 -359 -442 -474 -593 -92 -120 -131
-152 -158 -131 -59 49 115 334 456 749 48 58 109 134 136 170 209 278 258 326
420 415 39 21 81 47 95 58 l25 19 -40 -7 c-22 -4 -85 -18 -140 -31 l-100 -24
-2508 0 -2508 0 -52 48 c-52 47 -50 41 12 -44 28 -38 30 -44 12 -35 -12 7 -45
33 -74 58 l-52 47 -7 -42 c-13 -78 -77 -176 -263 -408 -248 -308 -367 -468
-573 -764 -32 -47 -110 -157 -172 -245 -63 -88 -138 -196 -168 -239 -29 -44
-73 -107 -97 -140 -24 -34 -107 -160 -184 -281 -78 -121 -156 -233 -173 -248
l-30 -29 -21 21 c-21 20 -21 22 -5 66 10 25 16 45 14 45 -5 0 -146 -214 -146
-222 0 -2 17 -3 37 -3 37 0 38 -1 41 -38 4 -41 6 -35 -102 -232 -80 -147 -123
-198 -159 -193 -18 2 -22 9 -19 36 1 18 -1 31 -5 29 -15 -9 -238 -403 -324
-572 -30 -57 -36 -75 -21 -62 11 10 31 17 44 15 19 -2 24 -10 26 -40 3 -31 -7
-53 -64 -140 -37 -57 -83 -136 -102 -175 -20 -40 -41 -73 -46 -73 -8 0 -4 53
10 110 13 55 -25 -15 -152 -279 -111 -232 -133 -272 -156 -280 -26 -9 -27 -13
-22 -54 l6 -44 -53 -19 c-57 -20 -79 -48 -94 -121 -8 -42 6 -43 52 -2 33 28
83 55 211 110 42 18 57 31 69 59 8 19 37 89 65 155 78 188 491 984 603 1160
17 28 51 86 75 130 44 82 169 291 200 335 10 14 44 72 75 130 122 221 310 515
432 673 28 37 100 145 159 240 167 268 284 442 369 547 29 36 90 117 135 180
46 63 104 140 130 170 26 30 80 97 120 149 117 151 229 277 256 290 15 6 35 9
45 6 15 -5 -1 -30 -102 -158 -66 -84 -134 -172 -151 -197 -18 -25 -109 -148
-203 -275 -94 -126 -213 -290 -265 -364 -52 -73 -167 -233 -254 -355 -221
-306 -325 -469 -676 -1056 -178 -299 -200 -338 -408 -740 -248 -481 -369 -728
-448 -914 -46 -112 -67 -150 -81 -151 -54 -5 -165 -41 -213 -70 -50 -30 -186
-147 -150 -129 8 4 0 -9 -17 -29 -18 -21 -33 -49 -33 -62 0 -22 -4 -25 -40
-25 -50 0 -50 4 -6 117 18 49 50 135 71 193 20 58 64 168 98 245 64 149 340
702 422 845 57 100 148 259 307 535 64 110 144 250 178 310 35 61 120 195 189
299 69 104 162 246 207 315 44 69 105 160 135 201 31 41 89 125 129 185 64 96
205 296 357 505 340 471 776 1033 863 1115 l32 30 35 -40 34 -40 -21 43 -20
42 2801 0 2802 0 -41 -29z m132 -60 c10 -28 33 -85 51 -127 l34 -77 -27 -35
-26 -34 -10 23 c-29 72 -42 93 -70 110 -17 10 -37 19 -44 19 -19 0 -132 -113
-132 -133 0 -25 39 -21 82 8 62 42 74 33 29 -24 -30 -38 -101 -173 -101 -192
0 -6 16 3 35 20 40 35 53 38 61 16 4 -10 -14 -38 -50 -78 -195 -215 -407 -461
-500 -577 -59 -74 -144 -179 -189 -233 -228 -274 -322 -389 -374 -459 -62 -82
-86 -94 -105 -53 -6 14 -15 25 -19 25 -19 0 -39 -48 -39 -92 0 -43 -2 -48 -22
-48 -40 0 -52 14 -37 41 27 52 306 481 392 604 96 137 344 469 408 545 21 25
77 100 126 166 116 161 301 395 407 518 47 55 86 103 86 108 0 24 18 2 34 -41z
m2426 -362 c0 -41 -14 -36 -27 9 -24 79 -49 137 -70 160 -12 13 -25 33 -28 43
-11 35 -23 20 -15 -18 5 -21 14 -84 20 -139 l11 -101 -71 -373 c-72 -375 -113
-535 -193 -755 -51 -140 -67 -173 -97 -200 -16 -14 -25 -17 -38 -9 -32 21 -34
69 -8 227 14 84 30 188 36 232 31 212 220 1039 285 1244 l27 84 84 -188 c46
-103 84 -200 84 -216z m-4813 218 c16 -15 16 -19 3 -28 -14 -9 -2977 -3 -3007
6 -7 3 -13 14 -13 25 l0 20 1500 -2 c1424 -3 1500 -4 1517 -21z m1808 12 c4
-5 4 -21 1 -35 l-6 -24 -149 0 c-81 0 -263 3 -404 7 -232 6 -257 8 -257 23 0
10 13 21 33 28 45 14 774 16 782 1z m-4980 -149 c11 -19 -6 -69 -41 -120 -19
-27 -34 -52 -34 -55 0 -3 37 19 82 50 45 31 111 70 147 88 l66 32 560 3 c308
2 610 2 670 0 l110 -3 -46 -50 c-25 -27 -56 -64 -70 -81 -13 -17 -76 -96 -139
-175 -63 -79 -134 -170 -158 -202 -23 -31 -49 -57 -58 -57 -33 0 -297 -207
-363 -286 -14 -16 -77 -85 -140 -154 -63 -69 -149 -168 -190 -220 -96 -120
-278 -383 -361 -520 -176 -293 -199 -323 -275 -362 -46 -24 -107 -29 -590 -42
-387 -11 -456 -10 -493 2 -68 22 -82 58 -57 137 l7 20 -13 -20 c-7 -11 -40
-63 -74 -115 -101 -155 -174 -279 -221 -371 l-43 -87 52 52 c62 61 216 142
297 156 30 5 253 10 495 12 400 3 443 1 471 -14 17 -10 34 -24 38 -33 3 -9
-32 -92 -88 -203 -82 -165 -153 -328 -211 -487 -27 -73 -242 -285 -343 -338
-162 -86 -170 -87 -472 -87 -150 0 -280 4 -294 10 -14 5 -46 29 -70 54 -58 57
-86 143 -86 260 1 72 17 196 34 251 7 22 -15 -23 -80 -165 -24 -52 -77 -158
-119 -235 -100 -184 -260 -505 -284 -569 -11 -28 -27 -68 -35 -88 l-16 -38
683 0 684 0 57 118 c32 64 80 154 108 198 47 78 134 181 144 171 3 -2 -68
-149 -158 -326 l-162 -321 -773 0 -773 0 9 23 c37 95 93 221 143 322 33 66 75
154 93 195 37 86 430 847 495 960 243 420 605 1006 719 1165 62 87 320 449
432 606 51 72 120 166 331 454 137 186 380 495 389 495 4 0 11 -5 14 -10z
m2530 -40 c113 -18 148 -47 121 -99 -20 -38 -77 -73 -301 -183 -262 -129 -331
-148 -540 -148 -156 0 -195 6 -252 38 -13 7 -23 21 -23 31 0 30 72 128 167
229 133 141 135 141 488 142 154 0 307 -5 340 -10z m-307 -577 c289 -6 293 -7
250 -23 -65 -24 -232 -116 -284 -156 -24 -19 -47 -34 -51 -34 -18 0 70 76 135
118 41 26 69 48 63 50 -13 4 -126 -32 -201 -65 -54 -24 -57 -24 -515 -30
l-460 -6 -28 24 c-21 18 -30 37 -35 74 l-7 50 -25 -40 c-20 -31 -25 -53 -25
-102 0 -34 -3 -65 -7 -69 -5 -4 -8 22 -9 57 0 72 4 75 -49 -43 -12 -25 -66
-101 -121 -168 -155 -189 -192 -238 -253 -335 -64 -101 -48 -86 99 95 108 134
286 311 292 292 6 -17 -18 -53 -92 -137 -194 -219 -453 -550 -545 -695 -190
-301 -232 -373 -425 -730 -76 -140 -151 -304 -195 -425 -51 -141 -108 -242
-150 -267 -19 -12 -59 -44 -87 -72 -29 -28 -53 -46 -53 -41 0 5 -18 -9 -40
-30 -37 -36 -40 -37 -40 -16 0 32 91 115 175 160 45 24 70 43 71 56 18 121
308 710 498 1010 18 28 52 86 76 130 24 44 68 120 97 168 93 154 89 147 58
112 -14 -16 -78 -107 -141 -201 -124 -188 -188 -254 -243 -254 -22 0 -31 5
-31 16 0 26 -22 2 -54 -57 -26 -46 -26 -50 -8 -40 12 6 24 16 27 21 8 13 82
13 90 0 8 -14 -140 -256 -179 -293 -20 -19 -38 -27 -55 -25 -23 3 -26 7 -24
37 l1 33 -17 -28 c-30 -51 -171 -311 -171 -316 0 -2 21 15 46 39 46 45 60 49
77 22 15 -24 -72 -174 -168 -288 -46 -55 -100 -131 -120 -170 -21 -40 -39 -70
-41 -69 -8 8 22 104 78 257 153 413 642 1274 967 1698 207 272 458 539 611
650 l85 61 430 1 c237 1 562 -2 723 -6z m542 -21 c0 -4 -20 -30 -43 -57 -74
-85 -229 -286 -291 -378 l-60 -87 -69 0 c-40 0 -67 4 -65 10 2 5 89 124 193
264 l190 254 73 1 c39 1 72 -2 72 -7z m-362 -234 c-94 -128 -181 -246 -193
-261 -22 -29 -23 -29 -133 -30 -115 -1 -142 7 -142 42 0 10 24 62 53 117 59
111 37 92 288 232 142 79 236 122 291 131 4 0 -70 -104 -164 -231z m-413 -1
c16 -12 11 -15 -45 -20 -35 -3 -143 -2 -239 3 -97 5 -253 7 -348 5 -141 -3
-172 -1 -177 11 -8 20 780 21 809 1z m-201 -57 c6 -6 5 -20 -3 -36 -11 -26
-13 -26 -84 -20 -40 4 -164 9 -277 11 -235 4 -260 7 -260 40 l0 22 307 -4
c171 -2 312 -8 317 -13z m-786 -92 c32 -32 6 -80 -100 -189 -66 -68 -206 -266
-250 -354 -14 -27 -44 -101 -67 -164 -67 -180 -89 -217 -210 -342 -120 -124
-138 -131 -122 -46 17 91 -22 47 -109 -123 -70 -137 -77 -170 -27 -124 59 56
96 76 124 69 24 -6 25 -9 19 -53 -7 -53 -20 -67 -74 -76 -28 -4 -49 -17 -74
-46 -48 -53 -71 -54 -63 -2 l7 37 -32 -45 c-54 -78 -140 -261 -240 -508 -9
-23 -16 -30 -23 -23 -21 21 13 132 87 285 97 202 307 579 467 838 137 221 158
251 378 543 244 325 275 357 309 323z m439 -68 c181 0 213 -2 213 -15 0 -23
-34 -26 -238 -23 -162 3 -194 6 -208 20 -9 9 -13 21 -9 28 5 8 10 9 18 1 7 -7
84 -11 224 -11z m311 -122 c-94 -116 -108 -169 -69 -246 15 -29 307 -521 315
-529 3 -3 2134 -38 2213 -36 20 1 17 -7 -31 -76 -74 -106 -283 -461 -414 -700
l-40 -74 -38 59 c-20 32 -41 61 -44 64 -7 4 -31 55 -106 215 -30 64 -154 169
-212 181 -18 4 -32 9 -32 13 0 3 -120 7 -268 9 -400 4 -1640 31 -1774 38 -137
7 -165 -2 -227 -72 -60 -68 -268 -492 -320 -651 l-44 -133 -303 0 c-167 0
-304 2 -304 4 0 1 19 33 43 69 23 37 289 481 592 987 l550 920 274 0 273 0
-34 -42z m2327 0 c55 -20 86 -44 127 -98 l27 -35 -79 -125 c-44 -69 -84 -126
-88 -128 -5 -1 -15 11 -22 29 -21 49 -104 127 -165 155 -51 24 -70 26 -228 30
-95 3 -525 1 -957 -3 -495 -6 -792 -5 -805 1 -11 5 -15 11 -10 12 6 1 339 7
740 13 1099 16 1234 21 1201 38 -65 34 -234 42 -1030 46 -527 4 -781 8 -789
16 -16 16 9 39 62 56 39 12 188 14 1006 13 909 -1 963 -2 1010 -20z m-1447
-213 c69 -49 -13 -59 -453 -52 -318 4 -361 9 -407 47 -23 19 -19 19 407 20
375 0 433 -2 453 -15z m1199 -9 c29 -9 54 -20 57 -24 3 -5 -153 -6 -347 -4
-358 4 -401 9 -360 40 28 21 577 11 650 -12z m-2867 -88 c0 -7 -9 -32 -19 -55
-19 -40 -735 -1238 -752 -1257 -11 -12 3 33 31 104 12 30 175 317 363 637 244
417 347 583 360 583 9 0 17 -6 17 -12z m2970 -113 c19 -20 22 -32 18 -75 -9
-91 30 -85 -541 -81 -276 2 -696 6 -933 10 -413 6 -433 7 -454 26 -37 32 -100
116 -100 131 0 12 145 14 993 14 l994 0 23 -25z m-1189 -312 c13 -15 -2 -16
-215 -10 -126 4 -276 7 -333 7 -62 0 -103 4 -103 10 0 6 113 10 319 10 285 0
320 -2 332 -17z m1294 -16 c29 -16 23 -16 -146 -17 -97 0 -251 3 -344 7 -148
5 -166 8 -149 21 30 22 596 13 639 -11z m-1735 -396 c487 -10 908 -19 935 -20
57 -2 115 -18 115 -32 0 -5 -4 -9 -10 -9 -17 0 -11 -17 15 -48 l25 -30 -41
-46 c-22 -25 -51 -49 -64 -52 -15 -4 -50 5 -92 22 -78 32 -1 30 -1183 42 -718
8 -667 3 -751 73 l-45 38 48 -100 49 -99 923 0 c1000 0 973 1 1057 -54 21 -14
40 -26 42 -26 3 0 28 39 57 86 49 79 54 85 67 68 7 -10 13 -22 13 -26 0 -13
-121 -218 -129 -218 -3 0 -19 18 -36 41 -18 25 -51 51 -89 69 l-59 30 -943 0
-942 0 -6 25 c-4 14 -11 25 -16 25 -13 0 -13 -7 0 -30 7 -14 2 -25 -25 -54
-43 -46 -123 -179 -168 -281 -68 -154 -103 -339 -87 -455 10 -68 7 -81 -13
-61 -8 8 -12 50 -11 134 1 181 60 419 139 564 44 80 31 74 -26 -12 -65 -97
-132 -120 -141 -48 -2 21 -12 5 -45 -69 -63 -141 -61 -134 -30 -114 35 24 81
18 85 -11 4 -28 -62 -171 -83 -179 -22 -9 -42 13 -60 66 l-15 45 5 -68 c3 -37
8 -82 10 -100 l5 -32 -16 35 c-9 19 -29 52 -46 72 l-30 38 38 113 c58 169 276
599 336 664 25 27 30 24 93 -59 25 -33 45 -57 45 -53 0 15 -53 111 -72 133
l-21 22 154 0 c85 0 552 -9 1039 -19z m1165 -338 c-4 -29 -28 -86 -59 -143
-87 -156 -246 -468 -296 -580 -26 -58 -77 -169 -113 -247 -37 -78 -76 -177
-88 -220 -12 -43 -37 -117 -56 -165 -18 -48 -42 -120 -52 -160 -11 -40 -36
-127 -56 -193 -20 -66 -45 -160 -56 -209 -42 -190 -87 -193 -154 -11 l-37 100
18 50 c9 27 37 93 62 145 24 52 68 151 98 220 30 69 100 211 156 315 56 105
150 283 209 397 93 180 418 747 428 748 2 0 0 -21 -4 -47z m-165 -117 c8 -2
14 -8 13 -13 -1 -4 -35 -65 -76 -134 -208 -352 -595 -1102 -683 -1322 -58
-148 -81 -180 -49 -70 74 255 402 949 578 1223 148 231 156 245 159 270 3 21
-2 26 -24 28 -29 3 -37 16 -15 26 11 5 54 1 97 -8z m-172 -13 c2 -7 -2 -13
-10 -13 -7 0 -31 -12 -52 -26 -37 -25 -38 -28 -21 -40 28 -20 22 -134 -10
-220 -40 -106 -216 -444 -238 -456 -15 -8 -24 -6 -39 10 -17 17 -18 24 -8 62
21 78 2 59 -74 -75 -46 -82 -206 -401 -206 -411 0 -4 8 0 18 8 27 24 49 28 68
13 17 -12 17 -18 6 -59 -18 -68 -135 -301 -152 -304 -10 -2 -28 19 -48 54
l-33 57 36 89 c105 262 290 647 471 978 77 140 146 269 153 287 7 18 26 38 44
47 36 18 88 17 95 -1z m-2500 -362 c2 -5 -4 -16 -13 -25 -15 -14 -65 -16 -457
-16 -397 0 -443 2 -460 17 -10 9 -18 21 -18 27 0 14 943 11 948 -3z m89 -92
c35 -13 43 -25 43 -70 0 -42 -11 -54 -60 -63 -19 -3 -307 -2 -640 4 -554 9
-606 11 -617 27 -12 16 -15 73 -3 71 3 -1 25 8 50 20 44 21 54 22 622 22 383
0 586 -4 605 -11z m4727 -539 c31 -53 27 -129 -13 -215 -18 -38 -42 -83 -55
-100 -12 -16 -44 -70 -72 -119 -58 -106 -126 -181 -174 -191 -49 -11 -60 10
-60 115 0 111 19 182 80 305 103 209 238 302 294 205z m3066 -197 c0 -4 -116
-192 -257 -419 -154 -246 -261 -408 -265 -401 -25 40 33 160 231 475 142 228
239 352 275 352 9 0 16 -3 16 -7z m-3490 -181 c0 -32 -71 -286 -89 -321 l-13
-23 -21 21 c-17 17 -22 36 -25 95 -4 63 0 83 21 128 26 57 89 128 112 128 10
0 15 -10 15 -28z m-2678 -89 c28 -43 39 -78 31 -99 -4 -12 -390 -14 -2654 -14
l-2649 0 0 28 c0 44 39 72 144 102 58 17 205 18 2582 19 l2521 1 25 -37z
m-2188 -185 c8 -14 7 -22 -7 -35 -17 -17 -101 -18 -1584 -21 l-1566 -2 19 21
c10 12 37 30 59 40 38 18 103 19 1554 16 1423 -2 1514 -3 1525 -19z m2163 6
c3 -9 2 -24 -4 -33 -9 -14 -68 -16 -599 -16 l-589 0 -3 23 c-2 16 3 25 20 31
13 6 267 10 596 10 521 1 573 0 579 -15z m2438 -111 c3 -21 15 -68 27 -106 20
-65 19 -109 -2 -51 -31 87 -55 144 -62 144 -3 0 -9 -13 -13 -30 -3 -16 -22
-43 -41 -60 -31 -27 -41 -30 -102 -30 -37 0 -309 -7 -605 -15 -530 -13 -656
-11 -776 16 -55 12 -81 25 -104 53 -17 20 -18 20 -13 1 24 -90 58 -200 75
-243 l21 -52 -24 0 c-21 0 -29 12 -61 98 -21 53 -55 141 -76 195 l-37 97 336
1 c359 2 1365 14 1419 17 30 2 32 -1 38 -35z m-2256 -48 c17 -44 25 -79 21
-95 l-6 -25 -2740 0 -2740 0 -41 27 c-23 15 -57 44 -77 64 -20 20 -36 34 -36
31 0 -15 65 -168 101 -239 21 -43 39 -80 39 -84 0 -3 -12 -4 -27 -2 -23 3 -31
15 -70 113 -24 61 -60 146 -79 191 -19 45 -34 83 -34 85 0 2 1274 4 2831 4
l2831 0 27 -70z m5245 54 c5 -5 3 -29 -5 -61 -25 -92 31 -85 -803 -98 -400 -7
-747 -9 -771 -6 -23 4 -51 16 -60 26 -10 11 -23 20 -30 20 -7 0 -20 9 -30 20
-10 11 -24 20 -30 20 -7 0 -18 7 -25 15 -7 9 -14 14 -16 12 -7 -6 52 -169 90
-251 42 -91 41 -88 20 -84 -10 2 -50 79 -105 203 -49 109 -89 200 -89 201 0 7
1847 -10 1854 -17z m-588 -316 c15 -59 29 -57 -466 -67 -372 -7 -454 -6 -460
5 -12 18 6 47 43 69 30 19 54 20 454 20 l423 0 6 -27z m602 1 c13 -9 22 -24
22 -40 l0 -25 -102 3 c-87 3 -103 6 -106 20 -2 11 11 26 35 42 31 21 46 25 83
20 25 -3 55 -12 68 -20z m-3081 5 c31 -11 73 -47 73 -62 0 -14 -260 -4 -287
11 -27 15 -30 37 -5 51 23 14 183 14 219 0z m-733 -23 c14 -9 26 -23 26 -31 0
-13 -53 -15 -395 -15 -329 0 -395 2 -395 14 0 37 26 41 314 47 366 8 419 6
450 -15z m-3364 1 c35 -12 40 -16 40 -37 0 -7 -603 -10 -1790 -10 -1602 0
-1789 2 -1784 15 18 46 -47 44 1779 44 1340 1 1728 -2 1755 -12z m1940 -1 c0
-48 15 -46 -415 -46 -344 0 -404 2 -415 15 -7 8 -10 22 -6 30 8 22 836 23 836
1z"/>
<path d="M16557 12710 c-5 -19 -1 -20 125 -20 l130 0 -62 -70 c-54 -61 -59
-70 -39 -70 14 0 38 18 65 47 24 26 45 45 47 42 2 -2 11 -25 21 -51 13 -35 23
-48 37 -48 10 0 19 4 19 8 0 9 -35 115 -47 142 -3 8 -7 20 -7 25 -1 6 -57 11
-142 13 -135 2 -142 2 -147 -18z"/>
<path d="M13600 12600 c-53 -6 -54 -10 -2 -26 17 -5 15 -42 -8 -115 -10 -35
-35 -127 -55 -203 -20 -77 -38 -142 -40 -146 -11 -17 -117 -451 -139 -570 -55
-287 -94 -659 -82 -769 8 -64 38 -203 43 -197 2 2 -1 64 -7 137 -31 363 94
1036 310 1681 48 142 58 183 50 198 -6 11 -12 19 -13 18 -1 -1 -27 -4 -57 -8z"/>
<path d="M16910 12423 c0 -1 18 -44 39 -94 l39 -90 -84 -136 c-79 -127 -96
-171 -69 -179 6 -2 50 61 98 139 49 78 93 149 98 157 8 11 -2 40 -36 112 -36
76 -50 96 -65 95 -11 -1 -20 -2 -20 -4z"/>
<path d="M16796 12412 c-3 -5 -10 -39 -16 -75 -6 -37 -21 -97 -34 -133 l-24
-67 31 -63 c17 -35 34 -64 37 -64 5 0 20 24 112 170 l28 45 -23 75 c-31 98
-45 120 -79 120 -15 0 -29 -4 -32 -8z"/>
<path d="M16137 12094 c-22 -30 -82 -107 -134 -170 -89 -109 -121 -152 -302
-405 -41 -57 -121 -167 -177 -244 -56 -78 -131 -186 -165 -240 -34 -55 -67
-107 -74 -115 -23 -27 -161 -273 -209 -370 -53 -108 -42 -98 47 43 174 275
311 483 365 554 32 43 110 155 174 248 202 299 244 359 362 506 110 137 162
217 154 239 -1 5 -20 -16 -41 -46z"/>
</g>
</svg>
